<svg width="27" height="29" viewBox="0 0 27 29" fill="none" xmlns="http://www.w3.org/2000/svg">
<path d="M22.61 15.7931V15.586V13.5H21.61V15.9999C21.61 15.9999 21.61 16 21.61 16C21.61 16.1326 21.6627 16.2597 21.7565 16.3534L21.7565 16.3534L24.4635 19.0604L24.61 19.2069V19.414V21V21.5H24.11H2.10999H1.60999V21V19.414V19.2069L1.75643 19.0604L4.46343 16.3534L4.46349 16.3534C4.55723 16.2597 4.60993 16.1326 4.60999 16C4.60999 16 4.60999 15.9999 4.60999 15.9999V12.0005V12H5.10999C5.1072 10.5948 5.47529 9.21374 6.17707 7.99632C6.87886 6.7789 7.88949 5.76823 9.10688 5.06641C10.3243 4.36458 11.7053 3.99644 13.1105 3.99918C14.3263 4.00155 15.5228 4.28145 16.61 4.81444L22.61 15.7931ZM22.61 15.7931L22.7564 15.9396L25.4634 18.6466L25.4635 18.6466C25.5572 18.7403 25.6099 18.8674 25.61 19C25.61 19 25.61 19.0001 25.61 19.0001V22C25.61 22.1326 25.5573 22.2598 25.4635 22.3536C25.3698 22.4473 25.2426 22.5 25.11 22.5H18.11H17.61V23V24C17.61 25.1935 17.1359 26.3381 16.292 27.182C15.4481 28.0259 14.3035 28.5 13.11 28.5C11.9165 28.5 10.7719 28.0259 9.928 27.182C9.08409 26.3381 8.60999 25.1935 8.60999 24V23V22.5H8.10999H1.10999C0.977376 22.5 0.850199 22.4473 0.756432 22.3536C0.662664 22.2598 0.609985 22.1326 0.609985 22V19.0001C0.609985 19.0001 0.609985 19 0.609985 19C0.610042 18.8674 0.662736 18.7403 0.756485 18.6466L0.756539 18.6466L3.46354 15.9396L3.60999 15.7931V15.586V12.0003C3.61302 9.64596 4.48886 7.3764 6.06817 5.63039C7.64755 3.88429 9.81829 2.78583 12.1606 2.54743L12.61 2.50169V2.05V0.5M22.61 15.7931L12.61 0.5M12.61 0.5H13.61V2.051V2.50249L14.0591 2.54841C14.9353 2.63798 15.7939 2.85023 16.61 3.17851V4.26147C15.5143 3.76275 14.3218 3.50154 13.1115 3.49918L12.61 0.5ZM10.11 22.5H9.60999V23V24C9.60999 24.9283 9.97873 25.8185 10.6351 26.4749C11.2915 27.1313 12.1817 27.5 13.11 27.5C14.0382 27.5 14.9285 27.1313 15.5849 26.4749C16.2412 25.8185 16.61 24.9283 16.61 24V23V22.5H16.11H10.11Z" fill="#333333" stroke="#333333"/>
</svg>
