<svg width="28" height="28" viewBox="0 0 28 28" fill="none" xmlns="http://www.w3.org/2000/svg">
<path fill-rule="evenodd" clip-rule="evenodd" d="M5.22667 1.8667H5.13334C4.70587 1.8667 4.33814 1.8667 4.01334 1.94323C3.51052 2.06338 3.05079 2.32039 2.68507 2.68577C2.31936 3.05116 2.06194 3.51066 1.94134 4.01337C1.86667 4.33817 1.86667 4.70403 1.86667 5.13337V9.80003C1.86667 10.2275 1.86667 10.5952 1.9432 10.92C2.06335 11.4228 2.32036 11.8826 2.68574 12.2483C3.05113 12.614 3.51063 12.8714 4.01334 12.992C4.33814 13.0667 4.704 13.0667 5.13334 13.0667H9.8C10.2275 13.0667 10.5952 13.0667 10.92 12.9902C11.4228 12.87 11.8825 12.613 12.2483 12.2476C12.614 11.8822 12.8714 11.4227 12.992 10.92C13.0667 10.5952 13.0667 10.2294 13.0667 9.80003V5.13337C13.0667 4.7059 13.0667 4.33817 12.9901 4.01337C12.87 3.51055 12.613 3.05082 12.2476 2.6851C11.8822 2.31939 11.4227 2.06197 10.92 1.94137C10.5952 1.8667 10.2293 1.8667 9.8 1.8667H5.22667ZM4.44827 3.7595C4.52854 3.74083 4.6536 3.73337 5.22667 3.73337H9.70667C10.2816 3.73337 10.4048 3.73897 10.4851 3.7595C10.6528 3.7996 10.806 3.88536 10.928 4.00727C11.0499 4.12918 11.1356 4.28248 11.1757 4.45017C11.1944 4.52857 11.2 4.65177 11.2 5.2267V9.7067C11.2 10.2816 11.1944 10.4048 11.1739 10.4851C11.1338 10.6528 11.048 10.8061 10.9261 10.928C10.8042 11.0499 10.6509 11.1357 10.4832 11.1758C10.4067 11.1926 10.2835 11.2 9.70667 11.2H5.22667C4.65174 11.2 4.52854 11.1944 4.44827 11.1739C4.28059 11.1338 4.12729 11.048 4.00538 10.9261C3.88346 10.8042 3.7977 10.6509 3.7576 10.4832C3.7408 10.4067 3.73334 10.2835 3.73334 9.7067V5.2267C3.73334 4.65177 3.73894 4.52857 3.75947 4.4483C3.79957 4.28062 3.88533 4.12732 4.00724 4.00541C4.12915 3.88349 4.28245 3.79773 4.45014 3.75763L4.44827 3.7595ZM18.2933 1.8667H18.2C17.7725 1.8667 17.4048 1.8667 17.08 1.94323C16.5772 2.06338 16.1175 2.32039 15.7517 2.68577C15.386 3.05116 15.1286 3.51066 15.008 4.01337C14.9333 4.33817 14.9333 4.70403 14.9333 5.13337V9.80003C14.9333 10.2275 14.9333 10.5952 15.0099 10.92C15.13 11.4228 15.387 11.8826 15.7524 12.2483C16.1178 12.614 16.5773 12.8714 17.08 12.992C17.4048 13.0667 17.7707 13.0667 18.2 13.0667H22.8667C23.2941 13.0667 23.6619 13.0667 23.9867 12.9902C24.4895 12.87 24.9492 12.613 25.3149 12.2476C25.6807 11.8822 25.9381 11.4227 26.0587 10.92C26.1333 10.5952 26.1333 10.2294 26.1333 9.80003V5.13337C26.1333 4.7059 26.1333 4.33817 26.0568 4.01337C25.9367 3.51055 25.6797 3.05082 25.3143 2.6851C24.9489 2.31939 24.4894 2.06197 23.9867 1.94137C23.6619 1.8667 23.296 1.8667 22.8667 1.8667H18.2933ZM17.5149 3.7595C17.5952 3.74083 17.7203 3.73337 18.2933 3.73337H22.7733C23.3483 3.73337 23.4715 3.73897 23.5517 3.7595C23.7194 3.7996 23.8727 3.88536 23.9946 4.00727C24.1165 4.12918 24.2023 4.28248 24.2424 4.45017C24.2611 4.52857 24.2667 4.65177 24.2667 5.2267V9.7067C24.2667 10.2816 24.2592 10.4048 24.2405 10.4851C24.2004 10.6528 24.1147 10.8061 23.9928 10.928C23.8709 11.0499 23.7176 11.1357 23.5499 11.1758C23.4715 11.1944 23.3483 11.2 22.7733 11.2H18.2933C17.7184 11.2 17.5952 11.1944 17.5149 11.1739C17.3473 11.1338 17.194 11.048 17.072 10.9261C16.9501 10.8042 16.8644 10.6509 16.8243 10.4832C16.8075 10.4067 16.8 10.2835 16.8 9.7067V5.2267C16.8 4.65177 16.8056 4.52857 16.8261 4.4483C16.8662 4.28062 16.952 4.12732 17.0739 4.00541C17.1958 3.88349 17.3491 3.79773 17.5168 3.75763L17.5149 3.7595ZM5.13334 14.9334H9.8C10.2275 14.9334 10.5952 14.9334 10.92 15.0099C11.4228 15.13 11.8825 15.3871 12.2483 15.7524C12.614 16.1178 12.8714 16.5773 12.992 17.08C13.0667 17.4048 13.0667 17.7707 13.0667 18.2V22.8667C13.0667 23.2942 13.0667 23.6619 12.9901 23.9867C12.87 24.4895 12.613 24.9492 12.2476 25.315C11.8822 25.6807 11.4227 25.9381 10.92 26.0587C10.5952 26.1334 10.2293 26.1334 9.8 26.1334H5.13334C4.70587 26.1334 4.33814 26.1334 4.01334 26.0568C3.51052 25.9367 3.05079 25.6797 2.68507 25.3143C2.31936 24.9489 2.06194 24.4894 1.94134 23.9867C1.86667 23.6619 1.86667 23.296 1.86667 22.8667V18.2C1.86667 17.7726 1.86667 17.4048 1.9432 17.08C2.06335 16.5772 2.32036 16.1175 2.68574 15.7518C3.05113 15.3861 3.51063 15.1286 4.01334 15.008C4.33814 14.9334 4.704 14.9334 5.13334 14.9334ZM5.22667 16.8C4.65174 16.8 4.52854 16.8056 4.44827 16.8262C4.28059 16.8663 4.12729 16.952 4.00538 17.0739C3.88346 17.1959 3.7977 17.3492 3.7576 17.5168C3.7408 17.5934 3.73334 17.7166 3.73334 18.2934V22.7734C3.73334 23.3483 3.73894 23.4715 3.75947 23.5518C3.79957 23.7194 3.88533 23.8727 4.00724 23.9947C4.12915 24.1166 4.28245 24.2023 4.45014 24.2424C4.52854 24.2611 4.65174 24.2667 5.22667 24.2667H9.70667C10.2816 24.2667 10.4048 24.2592 10.4851 24.2406C10.6528 24.2005 10.806 24.1147 10.928 23.9928C11.0499 23.8709 11.1356 23.7176 11.1757 23.5499C11.1944 23.4715 11.2 23.3483 11.2 22.7734V18.2934C11.2 17.7184 11.1944 17.5952 11.1739 17.515C11.1338 17.3473 11.048 17.194 10.9261 17.0721C10.8042 16.9502 10.6509 16.8644 10.4832 16.8243C10.4067 16.8075 10.2835 16.8 9.70667 16.8H5.22667ZM18.2933 14.9334H18.2C17.7725 14.9334 17.4048 14.9334 17.08 15.0099C16.5772 15.13 16.1175 15.3871 15.7517 15.7524C15.386 16.1178 15.1286 16.5773 15.008 17.08C14.9333 17.4048 14.9333 17.7707 14.9333 18.2V22.8667C14.9333 23.2942 14.9333 23.6619 15.0099 23.9867C15.13 24.4895 15.387 24.9492 15.7524 25.315C16.1178 25.6807 16.5773 25.9381 17.08 26.0587C17.4048 26.1352 17.7725 26.1352 18.2 26.1352H22.8667C23.2941 26.1352 23.6619 26.1352 23.9867 26.0587C24.4891 25.9382 24.9485 25.6811 25.3138 25.3157C25.6792 24.9504 25.9364 24.491 26.0568 23.9886C26.1333 23.6638 26.1333 23.296 26.1333 22.8686V18.2C26.1333 17.7726 26.1333 17.4048 26.0568 17.08C25.9367 16.5772 25.6797 16.1175 25.3143 15.7518C24.9489 15.3861 24.4894 15.1286 23.9867 15.008C23.6619 14.9334 23.296 14.9334 22.8667 14.9334H18.2933ZM17.5149 16.8262C17.5952 16.8075 17.7203 16.8 18.2933 16.8H22.7733C23.3483 16.8 23.4715 16.8056 23.5517 16.8262C23.7194 16.8663 23.8727 16.952 23.9946 17.0739C24.1165 17.1959 24.2023 17.3492 24.2424 17.5168C24.2611 17.5952 24.2667 17.7184 24.2667 18.2934V22.7734C24.2667 23.3483 24.2592 23.4715 24.2405 23.5518C24.2004 23.7194 24.1147 23.8727 23.9928 23.9947C23.8709 24.1166 23.7176 24.2023 23.5499 24.2424C23.4715 24.2611 23.3483 24.2667 22.7733 24.2667H18.2933C17.7184 24.2667 17.5952 24.2592 17.5149 24.2406C17.3473 24.2005 17.194 24.1147 17.072 23.9928C16.9501 23.8709 16.8644 23.7176 16.8243 23.5499C16.8075 23.4734 16.8 23.3502 16.8 22.7734V18.2934C16.8 17.7184 16.8056 17.5952 16.8261 17.515C16.8662 17.3473 16.952 17.194 17.0739 17.0721C17.1958 16.9502 17.3491 16.8644 17.5168 16.8243L17.5149 16.8262Z" fill="#14213D"/>
</svg>
