<svg width="21" height="22" viewBox="0 0 21 22" fill="none" xmlns="http://www.w3.org/2000/svg">
<path d="M9.625 13.3333C9.39294 13.3333 9.17038 13.2411 9.00628 13.077C8.84219 12.9129 8.75 12.6903 8.75 12.4583C8.75 12.2262 8.84219 12.0036 9.00628 11.8395C9.17038 11.6754 9.39294 11.5833 9.625 11.5833C9.85706 11.5833 10.0796 11.6754 10.2437 11.8395C10.4078 12.0036 10.5 12.2262 10.5 12.4583C10.5 12.6903 10.4078 12.9129 10.2437 13.077C10.0796 13.2411 9.85706 13.3333 9.625 13.3333Z" fill="#14213D"/>
<path fill-rule="evenodd" clip-rule="evenodd" d="M2.00025 8.66667C2.11342 8.66667 2.22483 8.65733 2.33333 8.63867V13.3333H0.875C0.797645 13.3333 0.723459 13.3641 0.668761 13.4188C0.614062 13.4735 0.583333 13.5476 0.583333 13.625V14.2083C0.583333 14.2857 0.614062 14.3599 0.668761 14.4146C0.723459 14.4693 0.797645 14.5 0.875 14.5H20.125C20.2024 14.5 20.2765 14.4693 20.3312 14.4146C20.3859 14.3599 20.4167 14.2857 20.4167 14.2083V13.625C20.4167 13.5476 20.3859 13.4735 20.3312 13.4188C20.2765 13.3641 20.2024 13.3333 20.125 13.3333H18.6667V8.63867C18.7752 8.65733 18.8866 8.66667 18.9997 8.66667C20.1092 8.66667 21 7.76133 21 6.65475V5.26058C21.0001 5.0756 20.9679 4.89202 20.9049 4.71808L19.6333 1.21225C19.5578 1.00359 19.4199 0.823247 19.2383 0.695795C19.0566 0.568343 18.8401 0.499974 18.6182 0.5H2.38117C2.15941 0.500258 1.94312 0.568823 1.76172 0.696369C1.58032 0.823914 1.44261 1.00425 1.36733 1.21283L0.0956667 4.71808C0.0324828 4.89198 0.000108948 5.07556 0 5.26058V6.65475C0 7.76133 0.89075 8.66667 2.00025 8.66667ZM1.19233 5.11592L2.44358 1.66667H18.5558L19.8071 5.11592C19.8246 5.16258 19.8327 5.211 19.8327 5.26058V6.65475C19.8341 6.87733 19.7471 7.09137 19.5908 7.24985C19.4346 7.40833 19.2217 7.4983 18.9992 7.5C18.5442 7.5 18.1662 7.12667 18.1662 6.65475C18.1662 6.50004 18.1047 6.35167 17.9953 6.24227C17.8859 6.13287 17.7375 6.07142 17.5828 6.07142C17.4281 6.07142 17.2798 6.13287 17.1704 6.24227C17.061 6.35167 16.9995 6.50004 16.9995 6.65475C17.0009 6.87733 16.9139 7.09137 16.7576 7.24985C16.6013 7.40833 16.3885 7.4983 16.1659 7.5C15.7109 7.5 15.3329 7.12667 15.3329 6.65533C15.3329 6.50062 15.2715 6.35225 15.1621 6.24285C15.0527 6.13346 14.9043 6.072 14.7496 6.072C14.5949 6.072 14.4465 6.13346 14.3371 6.24285C14.2277 6.35225 14.1662 6.50062 14.1662 6.65533C14.1662 7.12667 13.7883 7.5 13.3327 7.5C12.8771 7.5 12.4997 7.12667 12.4997 6.65475C12.4997 6.50004 12.4382 6.35167 12.3288 6.24227C12.2194 6.13287 12.071 6.07142 11.9163 6.07142C11.7616 6.07142 11.6133 6.13287 11.5039 6.24227C11.3945 6.35167 11.333 6.50004 11.333 6.65475C11.3346 6.87728 11.2477 7.09132 11.0915 7.24982C10.9353 7.40832 10.7225 7.4983 10.5 7.5C10.2775 7.4983 10.0648 7.40841 9.90852 7.25006C9.75225 7.0917 9.66517 6.87781 9.66642 6.65533C9.66642 6.50062 9.60496 6.35225 9.49556 6.24285C9.38617 6.13346 9.23779 6.072 9.08308 6.072C8.92837 6.072 8.78 6.13346 8.6706 6.24285C8.56121 6.35225 8.49975 6.50062 8.49975 6.65533C8.49975 7.12667 8.12233 7.5 7.66675 7.5C7.21117 7.5 6.83317 7.12667 6.83317 6.65475C6.83317 6.50004 6.77171 6.35167 6.66231 6.24227C6.55292 6.13287 6.40454 6.07142 6.24983 6.07142C6.09512 6.07142 5.94675 6.13287 5.83735 6.24227C5.72796 6.35167 5.6665 6.50004 5.6665 6.65475C5.6665 7.12608 5.28908 7.5 4.8335 7.5C4.37792 7.5 3.99992 7.12667 3.99992 6.65475C3.99992 6.50004 3.93846 6.35167 3.82906 6.24227C3.71967 6.13287 3.57129 6.07142 3.41658 6.07142C3.26187 6.07142 3.1135 6.13287 3.0041 6.24227C2.89471 6.35167 2.83325 6.50004 2.83325 6.65475C2.83325 7.12608 2.45583 7.5 2.00025 7.5C1.54408 7.5 1.16667 7.12667 1.16667 6.65475V5.26058C1.16666 5.21123 1.17534 5.16226 1.19233 5.11592ZM17.5 8.1545C17.1345 8.48488 16.6592 8.66744 16.1665 8.66667C15.903 8.66699 15.642 8.61485 15.3989 8.5133C15.1557 8.41175 14.9352 8.26281 14.7502 8.07517C14.5651 8.26288 14.3445 8.41186 14.1012 8.51341C13.8579 8.61497 13.5969 8.66706 13.3332 8.66667C13.0697 8.66699 12.8088 8.61485 12.5656 8.5133C12.3225 8.41175 12.1019 8.26281 11.9169 8.07517C11.7318 8.26288 11.5112 8.41186 11.2679 8.51341C11.0247 8.61497 10.7636 8.66706 10.5 8.66667C10.2364 8.66706 9.97533 8.61497 9.73206 8.51341C9.48879 8.41186 9.26817 8.26288 9.08308 8.07517C8.89806 8.26281 8.67754 8.41175 8.43438 8.5133C8.19121 8.61485 7.93027 8.66699 7.66675 8.66667C7.112 8.66667 6.61092 8.43975 6.24983 8.07517C6.06481 8.26281 5.84429 8.41175 5.60113 8.5133C5.35796 8.61485 5.09702 8.66699 4.8335 8.66667C4.32017 8.66667 3.8535 8.47242 3.5 8.1545V13.3333H4.95833C4.88098 13.3333 4.80679 13.3026 4.75209 13.2479C4.6974 13.1932 4.66667 13.119 4.66667 13.0417V11.875C4.66667 11.7976 4.6974 11.7235 4.75209 11.6688C4.80679 11.6141 4.88098 11.5833 4.95833 11.5833H6.70833C6.78569 11.5833 6.85987 11.6141 6.91457 11.6688C6.96927 11.7235 7 11.7976 7 11.875V12.1667H7.875C7.95235 12.1667 8.02654 12.1974 8.08124 12.2521C8.13594 12.3068 8.16667 12.381 8.16667 12.4583V13.0417C8.16667 13.119 8.13594 13.1932 8.08124 13.2479C8.02654 13.3026 7.95235 13.3333 7.875 13.3333H17.5V8.1545ZM1.16667 16.25C1.16667 16.0953 1.22812 15.9469 1.33752 15.8375C1.44692 15.7281 1.59529 15.6667 1.75 15.6667H19.25C19.4047 15.6667 19.5531 15.7281 19.6625 15.8375C19.7719 15.9469 19.8333 16.0953 19.8333 16.25V20.9167C19.8333 21.0714 19.7719 21.2197 19.6625 21.3291C19.5531 21.4385 19.4047 21.5 19.25 21.5H1.75C1.59529 21.5 1.44692 21.4385 1.33752 21.3291C1.22812 21.2197 1.16667 21.0714 1.16667 20.9167V16.25ZM2.33333 20.3333V16.8333H18.6667V20.3333H2.33333Z" fill="#14213D"/>
</svg>
