<svg width="21" height="20" viewBox="0 0 21 20" fill="none" xmlns="http://www.w3.org/2000/svg">
<path d="M18.7564 19.3536C18.9517 19.5488 19.2683 19.5488 19.4635 19.3536C19.6588 19.1583 19.6588 18.8417 19.4635 18.6464L13.755 12.9379C14.2921 12.324 14.7261 11.6257 15.0391 10.8701C15.416 9.96018 15.61 8.98491 15.61 8C15.61 7.01509 15.416 6.03982 15.0391 5.12987C14.6622 4.21993 14.1097 3.39314 13.4133 2.6967C12.7168 2.00026 11.8901 1.44781 10.9801 1.0709C10.0702 0.693993 9.0949 0.5 8.10999 0.5C7.12507 0.5 6.1498 0.693993 5.23986 1.0709C4.32992 1.44781 3.50312 2.00026 2.80668 2.6967C2.11024 3.39314 1.5578 4.21993 1.18089 5.12987C0.803979 6.03982 0.609985 7.01509 0.609985 8C0.609985 8.98491 0.803979 9.96018 1.18089 10.8701C1.5578 11.7801 2.11025 12.6069 2.80668 13.3033C3.50312 13.9997 4.32992 14.5522 5.23986 14.9291C6.1498 15.306 7.12507 15.5 8.10999 15.5C9.0949 15.5 10.0702 15.306 10.9801 14.9291C11.7357 14.6161 12.434 14.1821 13.0479 13.6451L18.7564 19.3536Z" stroke="#333333" stroke-opacity="0.4" stroke-linecap="round" stroke-linejoin="round"/>
</svg>
