<svg width="37" height="36" viewBox="0 0 37 36" fill="none" xmlns="http://www.w3.org/2000/svg">
<g clip-path="url(#clip0_1007_919)">
<g clip-path="url(#clip1_1007_919)">
<path d="M16.11 1.33325L28.7766 8.66658V23.3333L16.11 30.6666L3.4433 23.3333V8.66658L16.11 1.33325ZM16.11 4.41459L6.10996 10.2039V21.7959L16.11 27.5853L26.11 21.7959V10.2039L16.11 4.41459ZM16.11 21.3333C14.6955 21.3333 13.3389 20.7713 12.3387 19.7712C11.3385 18.771 10.7766 17.4144 10.7766 15.9999C10.7766 14.5854 11.3385 13.2289 12.3387 12.2287C13.3389 11.2285 14.6955 10.6666 16.11 10.6666C17.5245 10.6666 18.881 11.2285 19.8812 12.2287C20.8814 13.2289 21.4433 14.5854 21.4433 15.9999C21.4433 17.4144 20.8814 18.771 19.8812 19.7712C18.881 20.7713 17.5245 21.3333 16.11 21.3333ZM16.11 18.6666C16.8172 18.6666 17.4955 18.3856 17.9956 17.8855C18.4957 17.3854 18.7766 16.7072 18.7766 15.9999C18.7766 15.2927 18.4957 14.6144 17.9956 14.1143C17.4955 13.6142 16.8172 13.3333 16.11 13.3333C15.4027 13.3333 14.7244 13.6142 14.2243 14.1143C13.7242 14.6144 13.4433 15.2927 13.4433 15.9999C13.4433 16.7072 13.7242 17.3854 14.2243 17.8855C14.7244 18.3856 15.4027 18.6666 16.11 18.6666Z" fill="#1B1B1B" fill-opacity="0.9"/>
</g>
</g>
<defs>
<clipPath id="clip0_1007_919">
<rect width="36" height="36" fill="white" transform="translate(0.109985)"/>
</clipPath>
<clipPath id="clip1_1007_919">
<rect width="32" height="32" fill="white" transform="translate(0.109985)"/>
</clipPath>
</defs>
</svg>
