<svg width="29" height="28" viewBox="0 0 29 28" fill="none" xmlns="http://www.w3.org/2000/svg">
<path d="M7.49999 2.33325C6.88115 2.33325 6.28766 2.57908 5.85007 3.01667C5.41249 3.45425 5.16666 4.04775 5.16666 4.66659V22.1666C5.16666 23.4616 6.20499 24.4999 7.49999 24.4999V25.6666H9.83332V24.4999H19.1667V25.6666H21.5V24.4999C22.795 24.4999 23.8333 23.4616 23.8333 22.1666V4.66659C23.8333 4.04775 23.5875 3.45425 23.1499 3.01667C22.7123 2.57908 22.1188 2.33325 21.5 2.33325H7.49999ZM7.49999 4.66659H13.3333V22.1666H7.49999V4.66659ZM15.6667 4.66659H21.5V22.1666H15.6667V4.66659ZM9.83332 11.6666V15.1666H12.1667V11.6666H9.83332ZM16.8333 11.6666V15.1666H19.1667V11.6666H16.8333Z" fill="#FEFEFE" fill-opacity="0.996078"/>
</svg>
