<svg width="19" height="24" viewBox="0 0 19 24" fill="none" xmlns="http://www.w3.org/2000/svg">
<path d="M2.49996 0.333374C1.88112 0.333374 1.28763 0.579207 0.850043 1.01679C0.412458 1.45438 0.166626 2.04787 0.166626 2.66671V20.1667C0.166626 21.4617 1.20496 22.5 2.49996 22.5V23.6667H4.83329V22.5H14.1666V23.6667H16.5V22.5C17.795 22.5 18.8333 21.4617 18.8333 20.1667V2.66671C18.8333 2.04787 18.5875 1.45438 18.1499 1.01679C17.7123 0.579207 17.1188 0.333374 16.5 0.333374H2.49996ZM2.49996 2.66671H8.33329V20.1667H2.49996V2.66671ZM10.6666 2.66671H16.5V20.1667H10.6666V2.66671ZM4.83329 9.66671V13.1667H7.16663V9.66671H4.83329ZM11.8333 9.66671V13.1667H14.1666V9.66671H11.8333Z" fill="#14213D"/>
</svg>
